<svg xmlns="http://www.w3.org/2000/svg" viewBox="0 0 256 256" width="256" height="256">
    <defs>
        <linearGradient id="bg" x1="0" y1="0" x2="1" y2="1">
            <stop offset="0%" stop-color="#1A0D05"/>
            <stop offset="100%" stop-color="#0C0804"/>
        </linearGradient>
    </defs>

    <!-- Background -->
    <rect width="256" height="256" rx="54" ry="54" fill="url(#bg)"/>

    <!-- T horizontal bar -->
    <rect x="36" y="85" width="184" height="36" rx="18" fill="#E8650A"/>
    <rect x="40" y="86" width="176" height="14" rx="14" fill="#F88226" opacity="0.35"/>

    <!-- T vertical stem -->
    <rect x="110" y="102" width="36" height="115" rx="18" fill="#E8650A"/>
    <rect x="112" y="103" width="32" height="28" rx="14" fill="#F88226" opacity="0.3"/>

    <!-- Map pin — top right -->
    <!-- Outer ring -->
    <circle cx="194" cy="54" r="22" fill="#E8650A"/>
    <!-- Bright top arc -->
    <path d="M172 54 A22 22 0 0 1 216 54" fill="#F88226" opacity="0.5"/>
    <!-- Dark inner -->
    <circle cx="194" cy="54" r="13" fill="#0C0804"/>
    <!-- Center dot -->
    <circle cx="194" cy="54" r="5.5" fill="#E8650A"/>
    <!-- Glint -->
    <circle cx="188" cy="48" r="2.5" fill="white" opacity="0.3"/>

    <!-- Route crumbs (T bar → pin) -->
    <circle cx="168" cy="85" r="2.5" fill="#FF9B37" opacity="0.65"/>
    <circle cx="178" cy="79" r="1.9" fill="#FF9B37" opacity="0.5"/>
    <circle cx="187" cy="73" r="1.4" fill="#FF9B37" opacity="0.35"/>

    <!-- Brand trail dots — lower left -->
    <circle cx="53" cy="214" r="3.5" fill="#E8650A" opacity="0.55"/>
    <circle cx="65" cy="220" r="2.5" fill="#E8650A" opacity="0.36"/>
    <circle cx="76" cy="224" r="1.8" fill="#E8650A" opacity="0.22"/>
</svg>